<svg width="70" height="70" viewBox="0 0 70 70" fill="none" xmlns="http://www.w3.org/2000/svg">
<g clip-path="url(#clip0)">
<path d="M30.0361 -9.91672e-06C29.1001 0.0841247 28.122 0.23136 27.1755 0.504798C31.214 2.92367 29.6469 5.92096 27.7644 6.73076C23.4525 8.88671 15.3125 2.40834 8.58174 9.67547C12.8936 10.4853 15.8489 12.1364 13.9664 14.5553C12.6202 16.1749 2.69231 17.7839 2.69231 23.9784C5.92098 22.3588 8.07693 23.421 8.07693 25.5769C8.07693 29.8888 0.252411 30.1833 0.252411 39.8798C5.36359 36.1148 7.26714 42.2671 8.07693 48.4615C4.31191 5.65805 45.5168 5.1322 45.5168 5.1322C42.9297 3.0078 36.6196 -0.588952 30.0361 -9.91672e-06ZM55.6971 -9.91672e-06C55.6971 -9.91672e-06 49.2503 1.3777 47.3678 7.57211C29.8678 8.10846 12.1154 18.0048 12.1154 39.5433C12.1154 66.4663 48.2091 70 48.2091 70C48.2091 70 49.5553 65.9826 49.5553 61.6707C49.5553 52.521 41.7308 50.628 41.7308 38.786C41.7308 32.8651 45.2434 30.93 46.863 30.1202C49.8287 37.9237 58.3894 38.1971 58.3894 38.1971C58.3894 38.1971 60.009 44.991 63.7741 42.5721C64.5838 43.6448 66.5295 43.3083 68.1491 40.8894C69.2218 39.2698 72.1875 36.3251 66.8029 31.2139C64.1106 19.6349 57.8846 12.3678 57.8846 12.3678C57.8846 12.3678 56.7909 6.75179 59.4832 2.43989C56.2545 2.16646 54.351 5.38461 54.351 5.38461L55.6971 -9.91672e-06ZM55.6971 21.0336C55.6971 21.0336 58.9468 23.421 59.4832 25.5769C58.9468 26.1133 54.0775 25.6085 55.6971 21.0336Z" fill="#FFFF00"/>
</g>
<defs>
<clipPath id="clip0">
<rect width="70" height="70" fill="white"/>
</clipPath>
</defs>
</svg>
