<svg width="198" height="70" viewBox="0 0 198 70" fill="none" xmlns="http://www.w3.org/2000/svg">
<g clip-path="url(#clip0)">
<path d="M30.0361 -9.91672e-06C29.1001 0.0841247 28.122 0.23136 27.1755 0.504798C31.214 2.92367 29.6469 5.92096 27.7644 6.73076C23.4525 8.88671 15.3125 2.40834 8.58174 9.67547C12.8936 10.4853 15.8489 12.1364 13.9664 14.5553C12.6202 16.1749 2.69231 17.7839 2.69231 23.9784C5.92098 22.3588 8.07693 23.421 8.07693 25.5769C8.07693 29.8888 0.252411 30.1833 0.252411 39.8798C5.36359 36.1148 7.26714 42.2671 8.07693 48.4615C4.31191 5.65805 45.5168 5.1322 45.5168 5.1322C42.9297 3.0078 36.6196 -0.588952 30.0361 -9.91672e-06ZM55.6971 -9.91672e-06C55.6971 -9.91672e-06 49.2503 1.3777 47.3678 7.57211C29.8678 8.10846 12.1154 18.0048 12.1154 39.5433C12.1154 66.4663 48.2091 70 48.2091 70C48.2091 70 49.5553 65.9826 49.5553 61.6707C49.5553 52.521 41.7308 50.628 41.7308 38.786C41.7308 32.8651 45.2434 30.93 46.863 30.1202C49.8287 37.9237 58.3894 38.1971 58.3894 38.1971C58.3894 38.1971 60.009 44.991 63.7741 42.5721C64.5838 43.6448 66.5295 43.3083 68.1491 40.8894C69.2218 39.2698 72.1875 36.3251 66.8029 31.2139C64.1106 19.6349 57.8846 12.3678 57.8846 12.3678C57.8846 12.3678 56.7909 6.75179 59.4832 2.43989C56.2545 2.16646 54.351 5.38461 54.351 5.38461L55.6971 -9.91672e-06ZM55.6971 21.0336C55.6971 21.0336 58.9468 23.421 59.4832 25.5769C58.9468 26.1133 54.0775 25.6085 55.6971 21.0336Z" fill="#FFFF00"/>
</g>
<path d="M96.936 24.152L91.104 35.432V41H87V35.432L81.168 24.152H85.824L89.088 31.208L92.328 24.152H96.936ZM111.214 34.088C111.214 34.472 111.19 34.872 111.142 35.288H101.854C101.918 36.12 102.182 36.76 102.646 37.208C103.126 37.64 103.71 37.856 104.398 37.856C105.422 37.856 106.134 37.424 106.534 36.56H110.902C110.678 37.44 110.27 38.232 109.678 38.936C109.102 39.64 108.374 40.192 107.494 40.592C106.614 40.992 105.63 41.192 104.542 41.192C103.23 41.192 102.062 40.912 101.038 40.352C100.014 39.792 99.2136 38.992 98.6376 37.952C98.0616 36.912 97.7736 35.696 97.7736 34.304C97.7736 32.912 98.0536 31.696 98.6136 30.656C99.1896 29.616 99.9896 28.816 101.014 28.256C102.038 27.696 103.214 27.416 104.542 27.416C105.838 27.416 106.99 27.688 107.998 28.232C109.006 28.776 109.79 29.552 110.35 30.56C110.926 31.568 111.214 32.744 111.214 34.088ZM107.014 33.008C107.014 32.304 106.774 31.744 106.294 31.328C105.814 30.912 105.214 30.704 104.494 30.704C103.806 30.704 103.222 30.904 102.742 31.304C102.278 31.704 101.99 32.272 101.878 33.008H107.014ZM117.483 23.24V41H113.379V23.24H117.483ZM124.561 23.24V41H120.457V23.24H124.561ZM133.631 41.192C132.319 41.192 131.135 40.912 130.079 40.352C129.039 39.792 128.215 38.992 127.607 37.952C127.015 36.912 126.719 35.696 126.719 34.304C126.719 32.928 127.023 31.72 127.631 30.68C128.239 29.624 129.071 28.816 130.127 28.256C131.183 27.696 132.367 27.416 133.679 27.416C134.991 27.416 136.175 27.696 137.231 28.256C138.287 28.816 139.119 29.624 139.727 30.68C140.335 31.72 140.639 32.928 140.639 34.304C140.639 35.68 140.327 36.896 139.703 37.952C139.095 38.992 138.255 39.792 137.183 40.352C136.127 40.912 134.943 41.192 133.631 41.192ZM133.631 37.64C134.415 37.64 135.079 37.352 135.623 36.776C136.183 36.2 136.463 35.376 136.463 34.304C136.463 33.232 136.191 32.408 135.647 31.832C135.119 31.256 134.463 30.968 133.679 30.968C132.879 30.968 132.215 31.256 131.687 31.832C131.159 32.392 130.895 33.216 130.895 34.304C130.895 35.376 131.151 36.2 131.663 36.776C132.191 37.352 132.847 37.64 133.631 37.64ZM162.04 27.608L158.416 41H153.88L151.768 32.312L149.584 41H145.072L141.424 27.608H145.528L147.424 37.184L149.68 27.608H154.024L156.304 37.136L158.176 27.608H162.04ZM95.328 51.576C95.328 52.552 95.104 53.448 94.656 54.264C94.208 55.064 93.52 55.712 92.592 56.208C91.664 56.704 90.512 56.952 89.136 56.952H86.592V63H82.488V46.152H89.136C90.48 46.152 91.616 46.384 92.544 46.848C93.472 47.312 94.168 47.952 94.632 48.768C95.096 49.584 95.328 50.52 95.328 51.576ZM88.824 53.688C89.608 53.688 90.192 53.504 90.576 53.136C90.96 52.768 91.152 52.248 91.152 51.576C91.152 50.904 90.96 50.384 90.576 50.016C90.192 49.648 89.608 49.464 88.824 49.464H86.592V53.688H88.824ZM110.089 56.088C110.089 56.472 110.065 56.872 110.017 57.288H100.729C100.793 58.12 101.057 58.76 101.521 59.208C102.001 59.64 102.585 59.856 103.273 59.856C104.297 59.856 105.009 59.424 105.409 58.56H109.777C109.553 59.44 109.145 60.232 108.553 60.936C107.977 61.64 107.249 62.192 106.369 62.592C105.489 62.992 104.505 63.192 103.417 63.192C102.105 63.192 100.937 62.912 99.9126 62.352C98.8886 61.792 98.0886 60.992 97.5126 59.952C96.9366 58.912 96.6486 57.696 96.6486 56.304C96.6486 54.912 96.9286 53.696 97.4886 52.656C98.0646 51.616 98.8646 50.816 99.8886 50.256C100.913 49.696 102.089 49.416 103.417 49.416C104.713 49.416 105.865 49.688 106.873 50.232C107.881 50.776 108.665 51.552 109.225 52.56C109.801 53.568 110.089 54.744 110.089 56.088ZM105.889 55.008C105.889 54.304 105.649 53.744 105.169 53.328C104.689 52.912 104.089 52.704 103.369 52.704C102.681 52.704 102.097 52.904 101.617 53.304C101.153 53.704 100.865 54.272 100.753 55.008H105.889ZM117.342 49.416C118.286 49.416 119.11 49.608 119.814 49.992C120.534 50.376 121.086 50.88 121.47 51.504V49.608H125.574V62.976C125.574 64.208 125.326 65.32 124.83 66.312C124.35 67.32 123.606 68.12 122.598 68.712C121.606 69.304 120.366 69.6 118.878 69.6C116.894 69.6 115.286 69.128 114.054 68.184C112.822 67.256 112.118 65.992 111.942 64.392H115.998C116.126 64.904 116.43 65.304 116.91 65.592C117.39 65.896 117.982 66.048 118.686 66.048C119.534 66.048 120.206 65.8 120.702 65.304C121.214 64.824 121.47 64.048 121.47 62.976V61.08C121.07 61.704 120.518 62.216 119.814 62.616C119.11 63 118.286 63.192 117.342 63.192C116.238 63.192 115.238 62.912 114.342 62.352C113.446 61.776 112.734 60.968 112.206 59.928C111.694 58.872 111.438 57.656 111.438 56.28C111.438 54.904 111.694 53.696 112.206 52.656C112.734 51.616 113.446 50.816 114.342 50.256C115.238 49.696 116.238 49.416 117.342 49.416ZM121.47 56.304C121.47 55.28 121.182 54.472 120.606 53.88C120.046 53.288 119.358 52.992 118.542 52.992C117.726 52.992 117.03 53.288 116.454 53.88C115.894 54.456 115.614 55.256 115.614 56.28C115.614 57.304 115.894 58.12 116.454 58.728C117.03 59.32 117.726 59.616 118.542 59.616C119.358 59.616 120.046 59.32 120.606 58.728C121.182 58.136 121.47 57.328 121.47 56.304ZM127.727 56.28C127.727 54.904 127.983 53.696 128.495 52.656C129.023 51.616 129.735 50.816 130.631 50.256C131.527 49.696 132.527 49.416 133.631 49.416C134.575 49.416 135.399 49.608 136.103 49.992C136.823 50.376 137.375 50.88 137.759 51.504V49.608H141.863V63H137.759V61.104C137.359 61.728 136.799 62.232 136.079 62.616C135.375 63 134.551 63.192 133.607 63.192C132.519 63.192 131.527 62.912 130.631 62.352C129.735 61.776 129.023 60.968 128.495 59.928C127.983 58.872 127.727 57.656 127.727 56.28ZM137.759 56.304C137.759 55.28 137.471 54.472 136.895 53.88C136.335 53.288 135.647 52.992 134.831 52.992C134.015 52.992 133.319 53.288 132.743 53.88C132.183 54.456 131.903 55.256 131.903 56.28C131.903 57.304 132.183 58.12 132.743 58.728C133.319 59.32 134.015 59.616 134.831 59.616C135.647 59.616 136.335 59.32 136.895 58.728C137.471 58.136 137.759 57.328 137.759 56.304ZM150.28 63.192C149.112 63.192 148.072 62.992 147.16 62.592C146.248 62.192 145.528 61.648 145 60.96C144.472 60.256 144.176 59.472 144.112 58.608H148.168C148.216 59.072 148.432 59.448 148.816 59.736C149.2 60.024 149.672 60.168 150.232 60.168C150.744 60.168 151.136 60.072 151.408 59.88C151.696 59.672 151.84 59.408 151.84 59.088C151.84 58.704 151.64 58.424 151.24 58.248C150.84 58.056 150.192 57.848 149.296 57.624C148.336 57.4 147.536 57.168 146.896 56.928C146.256 56.672 145.704 56.28 145.24 55.752C144.776 55.208 144.544 54.48 144.544 53.568C144.544 52.8 144.752 52.104 145.168 51.48C145.6 50.84 146.224 50.336 147.04 49.968C147.872 49.6 148.856 49.416 149.992 49.416C151.672 49.416 152.992 49.832 153.952 50.664C154.928 51.496 155.488 52.6 155.632 53.976H151.84C151.776 53.512 151.568 53.144 151.216 52.872C150.88 52.6 150.432 52.464 149.872 52.464C149.392 52.464 149.024 52.56 148.768 52.752C148.512 52.928 148.384 53.176 148.384 53.496C148.384 53.88 148.584 54.168 148.984 54.36C149.4 54.552 150.04 54.744 150.904 54.936C151.896 55.192 152.704 55.448 153.328 55.704C153.952 55.944 154.496 56.344 154.96 56.904C155.44 57.448 155.688 58.184 155.704 59.112C155.704 59.896 155.48 60.6 155.032 61.224C154.6 61.832 153.968 62.312 153.136 62.664C152.32 63.016 151.368 63.192 150.28 63.192ZM171.439 49.608V63H167.335V61.176C166.919 61.768 166.351 62.248 165.631 62.616C164.927 62.968 164.143 63.144 163.279 63.144C162.255 63.144 161.351 62.92 160.567 62.472C159.783 62.008 159.175 61.344 158.743 60.48C158.311 59.616 158.095 58.6 158.095 57.432V49.608H162.175V56.88C162.175 57.776 162.407 58.472 162.871 58.968C163.335 59.464 163.959 59.712 164.743 59.712C165.543 59.712 166.175 59.464 166.639 58.968C167.103 58.472 167.335 57.776 167.335 56.88V49.608H171.439ZM179.834 63.192C178.666 63.192 177.626 62.992 176.714 62.592C175.802 62.192 175.082 61.648 174.554 60.96C174.026 60.256 173.73 59.472 173.666 58.608H177.722C177.77 59.072 177.986 59.448 178.37 59.736C178.754 60.024 179.226 60.168 179.786 60.168C180.298 60.168 180.69 60.072 180.962 59.88C181.25 59.672 181.394 59.408 181.394 59.088C181.394 58.704 181.194 58.424 180.794 58.248C180.394 58.056 179.746 57.848 178.85 57.624C177.89 57.4 177.09 57.168 176.45 56.928C175.81 56.672 175.258 56.28 174.794 55.752C174.33 55.208 174.098 54.48 174.098 53.568C174.098 52.8 174.306 52.104 174.722 51.48C175.154 50.84 175.778 50.336 176.594 49.968C177.426 49.6 178.41 49.416 179.546 49.416C181.226 49.416 182.546 49.832 183.506 50.664C184.482 51.496 185.042 52.6 185.186 53.976H181.394C181.33 53.512 181.122 53.144 180.77 52.872C180.434 52.6 179.986 52.464 179.426 52.464C178.946 52.464 178.578 52.56 178.322 52.752C178.066 52.928 177.938 53.176 177.938 53.496C177.938 53.88 178.138 54.168 178.538 54.36C178.954 54.552 179.594 54.744 180.458 54.936C181.45 55.192 182.258 55.448 182.882 55.704C183.506 55.944 184.05 56.344 184.514 56.904C184.994 57.448 185.242 58.184 185.258 59.112C185.258 59.896 185.034 60.6 184.586 61.224C184.154 61.832 183.522 62.312 182.69 62.664C181.874 63.016 180.922 63.192 179.834 63.192Z" fill="#FFFF00"/>
<defs>
<clipPath id="clip0">
<rect width="70" height="70" fill="white"/>
</clipPath>
</defs>
</svg>
