<svg width="32" height="36" viewBox="0 0 32 36" fill="none" xmlns="http://www.w3.org/2000/svg">
<path d="M16 0.800003C12.139 0.800003 8.99995 3.93907 8.99995 7.8V9.2H3.46558L0.512451 35.1H31.4875L28.5343 9.2H24.4V13.4C24.4 14.5594 23.4593 15.5 22.3 15.5C22.1441 15.5 21.9855 15.4891 21.8406 15.4563C20.9027 15.2457 20.2 14.4035 20.2 13.4C20.2 12.4895 20.7878 11.7211 21.6 11.4313V13.4C21.6 13.7855 21.9117 14.1 22.3 14.1C22.6882 14.1 23 13.7855 23 13.4V7.8C23 3.93907 19.8609 0.800003 16 0.800003ZM16 2.2C19.0871 2.2 21.6 4.71289 21.6 7.8V9.2H11.8V13.4C11.8 14.5594 10.8593 15.5 9.69995 15.5C9.54409 15.5 9.3855 15.4891 9.24058 15.4563C8.29995 15.2457 7.59995 14.4035 7.59995 13.4C7.59995 12.4895 8.18784 11.7211 8.99995 11.4313V13.4C8.99995 13.7855 9.3144 14.1 9.69995 14.1C10.0855 14.1 10.4 13.7855 10.4 13.4V7.8C10.4 4.71289 12.9128 2.2 16 2.2Z" fill="#151515"/>
</svg>
