<svg width="18" height="18" viewBox="0 0 18 18" fill="none" xmlns="http://www.w3.org/2000/svg">
<path d="M16.22 12.25L13.7 11.96C13.09 11.89 12.49 12.1 12.06 12.53L10.21 14.38C8.79104 13.66 7.50404 12.721 6.39204 11.608C5.27904 10.496 4.34004 9.20901 3.62004 7.79001L5.47004 5.94001C5.90004 5.51001 6.11004 4.91001 6.04004 4.30001L5.75004 1.78001C5.63004 0.77001 4.78004 0.0100098 3.76004 0.0100098H2.03004C0.900041 0.0100098 -0.0399593 0.95001 0.0300407 2.08001C0.295041 6.34901 2.13404 10.188 4.97304 13.027C7.81204 15.866 11.651 17.705 15.92 17.97C17.05 18.04 17.99 17.1 17.99 15.97V14.24C17.99 13.22 17.23 12.37 16.22 12.25Z" fill="#151515"/>
</svg>
